<svg xmlns="http://www.w3.org/2000/svg" height="24" viewBox="0 0 24 24" width="24" fill="#D1D1D1">
    <path d="M9.64 7.64c.2.2.5.2.7 0l3.29-3.29c.78-.78 2.05-.78 2.83 0 .78.78.78 2.05 0 2.83l-3.29 3.29c-.2.2-.2.5 0 .7l4.14 4.14c.2.2.51.2.71 0l3.29-3.29c.78-.78 2.05-.78 2.83 0 .78.78.78 2.05 0 2.83l-3.29 3.29c-.2.2-.2.51 0 .71l-1.41 1.41c-1.17 1.17-3.07 1.17-4.24 0l-4.14-4.14c-.2-.2-.51-.2-.71 0l-4.14 4.14c-1.17 1.17-3.07 1.17-4.24 0l-1.41-1.41c-.2-.2-.2-.51 0-.71l3.29-3.29c.78-.78.78-2.05 0-2.83-.78-.78-2.05-.78-2.83 0l-3.29 3.29c-.2.2-.51.2-.71 0l-2.46 2.46z"/>
</svg>
