<?xml version="1.0" standalone="no"?>
<!DOCTYPE svg PUBLIC "-//W3C//DTD SVG 20010904//EN"
 "http://www.w3.org/TR/2001/REC-SVG-20010904/DTD/svg10.dtd">
<svg version="1.0" xmlns="http://www.w3.org/2000/svg"
 width="96.000000pt" height="96.000000pt" viewBox="0 0 96.000000 96.000000"
 preserveAspectRatio="xMidYMid meet">
<metadata>
Created by potrace 1.16, written by Peter Selinger 2001-2019
</metadata>
<g transform="translate(0.000000,96.000000) scale(0.100000,-0.100000)"
fill="#000000" stroke="none">
<path d="M0 480 l0 -480 480 0 480 0 0 480 0 480 -480 0 -480 0 0 -480z m860
397 c0 -26 7 -36 38 -54 l37 -22 -33 -11 c-35 -13 -52 -36 -52 -69 0 -28 -11
-26 -40 4 -20 21 -29 24 -62 19 l-39 -7 17 37 c17 34 17 38 0 72 l-17 36 44
-6 c37 -6 46 -3 66 18 29 31 41 25 41 -17z m-215 -166 c13 -5 -17 -10 -80 -12
-87 -4 -109 -9 -160 -34 -33 -17 -59 -34 -58 -40 1 -5 26 -14 55 -20 106 -22
199 -90 242 -178 32 -62 33 -116 5 -175 -58 -119 -213 -146 -319 -55 -33 29
-38 38 -29 49 10 13 16 11 38 -9 106 -99 261 -59 286 74 20 107 -126 245 -271
257 -51 4 -51 4 -63 -29 -18 -53 -24 -140 -12 -183 8 -30 7 -43 -2 -54 -32
-39 -50 143 -22 223 8 22 15 42 15 44 0 12 -107 -11 -147 -32 -87 -43 -122
-140 -71 -194 18 -19 19 -23 5 -17 -24 9 -47 56 -47 94 0 94 102 177 240 195
41 6 62 15 84 36 26 25 78 48 141 62 34 8 149 6 170 -2z"/>
</g>
</svg>
