<svg xmlns="http://www.w3.org/2000/svg" height="24" viewBox="0 0 24 24" width="24" fill="#D1D1D1">
    <path d="M20.38 8.57l-1.23 1.85a.79.79 0 0 1-1.09.21c-2.06-1.37-4.54-2.15-7.14-2.01-4.83.26-8.73 4.29-8.91 9.12-.22 5.71 4.38 10.42 10 10.26 4.33-.12 8.04-2.95 9.38-6.79.16-.47.6-.76 1.05-.76h.05c.78 0 1.29.83.99 1.55-1.74 4.34-5.91 7.42-10.9 7.42-6.62 0-11.99-5.37-11.99-11.99S5.37 5.48 11.99 5.48c3.27 0 6.24 1.32 8.4 3.44.31.3.29.82-.01 1.13L18.9 11.53c-.31.3-.82.28-1.13-.02a5.968 5.968 0 0 0-4.78-1.51c-2.42.13-4.37 2.14-4.46 4.56-.11 2.85 2.19 5.21 5 5.13 2.17-.06 4.02-1.48 4.69-3.4.08-.24.3-.39.52-.39h.03c.39 0 .64.41.5.77-.92 2.42-3.15 4.14-5.83 4.29-3.79.2-7-3.02-6.57-6.84.34-3.07 2.87-5.52 5.94-5.75 2.13-.16 4.1.48 5.63 1.74l1.49-1.49c.3-.31.81-.29 1.11.02z"/>
</svg>
